<?xml version="1.0" standalone="no"?><!DOCTYPE svg PUBLIC "-//W3C//DTD SVG 1.1//EN" "http://www.w3.org/Graphics/SVG/1.1/DTD/svg11.dtd"><svg class="icon" width="200px" height="191.04px" viewBox="0 0 1072 1024" version="1.1" xmlns="http://www.w3.org/2000/svg"><path d="M509.561905 798.817524a39.497143 39.497143 0 0 0 55.978666 0l178.176-178.176a39.497143 39.497143 0 0 0-55.783619-55.881143l-110.738285 110.738286V63.926857a39.545905 39.545905 0 0 0-79.09181 0v611.57181l-110.738286-110.738286a39.399619 39.399619 0 0 0-55.783619 0 39.643429 39.643429 0 0 0-0.097523 55.881143l178.029714 178.176z m499.321905-164.473905a39.545905 39.545905 0 0 0-39.594667 39.545905v223.329524a23.600762 23.600762 0 0 1-23.552 23.552H126.878476a23.600762 23.600762 0 0 1-23.503238-23.552v-223.427048a39.497143 39.497143 0 0 0-78.994286 0v254.73219c0 39.204571 31.890286 70.997333 70.948572 70.997334h882.102857c39.15581 0 70.948571-31.890286 70.948571-70.997334v-254.73219a39.497143 39.497143 0 0 0-39.497142-39.448381z"  /></svg>
