<?xml version="1.0" standalone="no"?><!DOCTYPE svg PUBLIC "-//W3C//DTD SVG 1.1//EN" "http://www.w3.org/Graphics/SVG/1.1/DTD/svg11.dtd"><svg class="icon" width="200px" height="200.00px" viewBox="0 0 1024 1024" version="1.1" xmlns="http://www.w3.org/2000/svg"><path d="M488.533333 116.778667a34.56 34.56 0 0 1 48.981334 0l155.776 155.904a34.56 34.56 0 0 1-48.810667 48.896l-96.853333-96.896v535.125333a34.602667 34.602667 0 0 1-69.248 0V224.682667l-96.853334 96.853333a34.474667 34.474667 0 0 1-48.810666 0 34.688 34.688 0 0 1-0.128-48.853333l155.904-155.904z m436.906667 523.605333a34.602667 34.602667 0 0 0-34.645333 34.602667v195.413333a20.650667 20.650667 0 0 1-20.608 20.608H153.685333a20.650667 20.650667 0 0 1-20.565333-20.608v-195.498667a34.56 34.56 0 0 0-69.12 0v222.890667c0 34.304 27.904 62.122667 62.08 62.122667h771.84c34.261333 0 62.08-27.904 62.08-62.122667v-222.890667a34.56 34.56 0 0 0-34.56-34.517333z"  /></svg>
